# Blender 3.3.21
# www.blender.org
mtllib boka_er2r2.mtl
o zdsEMU_ER2R-7005_01_00.001
v -86.999496 -249.605042 170.917419
v -87.000000 387.143982 69.022629
v -87.000000 387.139465 170.917633
v -86.999496 -249.609512 68.959412
v -86.755005 -249.609512 61.409916
v -85.568497 387.143982 55.125122
v -86.756004 387.144928 61.410122
v -85.568001 -249.609512 55.125416
v 86.999496 -249.604553 170.917419
v 86.999496 387.139465 170.917633
v 87.000000 387.144470 69.022629
v 86.999496 -249.609024 68.959412
v 86.755005 -249.609512 61.409916
v 86.755501 387.144928 61.410122
v 85.568497 387.143982 55.125122
v 85.568001 -249.609512 55.125416
v -87.000504 -406.328064 170.917862
v -72.833504 -466.572052 170.917343
v -70.551003 -480.870056 122.690842
v -86.756500 -406.344025 61.461372
v -71.115501 -475.645020 61.461842
v -69.773003 -474.720947 55.176346
v -85.569504 -406.344025 55.176373
v -87.000504 -406.344025 69.977867
v 87.000999 -406.328064 170.917862
v 70.551506 -480.870056 122.690842
v 72.835999 -466.572052 170.917343
v 86.756500 -406.344025 61.461372
v 69.774506 -474.720947 55.176346
v 71.115997 -475.645020 61.461842
v 85.569504 -406.344025 55.176373
v 87.000999 -406.344025 69.977867
v 81.364998 387.139496 38.087925
v 81.364998 387.144470 61.482124
v 87.009003 387.138977 38.087128
v 86.999496 387.144470 68.959625
v -81.364998 387.138977 38.087925
v -87.009499 387.138977 38.087128
v -81.365501 387.143982 61.482124
v -87.000000 387.143982 69.022629
v 81.364998 -249.647522 38.087719
v 87.009003 -249.604538 38.086872
v 81.364998 -249.610519 61.481918
v 86.999496 -249.609024 68.959412
v -81.364998 -249.647522 38.087719
v -81.364998 -249.611023 61.481918
v -87.009003 -249.605011 38.086872
v -86.999496 -249.609512 68.959412
v 81.364998 -352.625519 38.088184
v 81.365501 -352.625000 61.481888
v 87.009003 -352.626526 38.086884
v 86.999496 -352.627014 69.047890
v -81.364502 -352.625519 38.088184
v -87.009003 -352.626526 38.086884
v -81.364998 -352.625519 61.481888
v -86.999001 -352.627014 69.047890
v 81.367500 -249.789017 38.088520
v 81.364998 -273.445038 38.088211
v 87.009003 -273.445038 38.088211
v 87.006500 -249.778076 38.152168
v -81.366997 -249.789017 38.088520
v -87.008499 -273.445526 38.088211
v -81.364502 -273.445526 38.088211
v -87.006500 -249.778580 38.152168
v 81.367500 -328.969025 38.088493
v 81.364998 -352.625519 38.088184
v 87.009003 -352.626526 38.086884
v 87.006500 -328.958038 38.152142
v -81.366997 -328.969025 38.088493
v -87.009003 -352.626526 38.086884
v -81.364502 -352.625519 38.088184
v -87.006004 -328.958527 38.152142
v 81.366997 490.001007 38.088760
v 81.364502 466.344513 38.088451
v 87.008499 466.344513 38.088451
v 87.006004 490.011505 38.152412
v -81.367500 490.000488 38.088760
v -87.009003 466.344513 38.088451
v -81.364998 466.344513 38.088451
v -87.006500 490.011505 38.152412
v 81.366997 410.820953 38.088734
v 81.364998 387.139496 38.087925
v 87.009003 387.138977 38.087128
v 87.006004 410.831451 38.152386
v -81.367500 410.820435 38.088734
v -87.009499 387.138977 38.087128
v -81.364998 387.138977 38.087925
v -87.006500 410.831451 38.152386
v 81.364998 -273.766022 38.087711
v 81.364998 -249.647522 38.087719
v 81.366005 -249.648529 55.320419
v 81.366005 -273.766022 55.320412
v 81.364998 -352.566040 38.087685
v 81.364998 -328.705017 38.087692
v 81.366005 -328.706085 55.320393
v 81.366005 -352.566040 55.320389
v -81.364998 -273.766022 38.087711
v -81.366005 -249.648529 55.320419
v -81.364998 -249.647522 38.087719
v -81.365501 -273.766022 55.320412
v -81.364998 -352.566040 38.087685
v -81.366005 -328.706085 55.320393
v -81.364998 -328.705017 38.087692
v -81.365501 -352.566040 55.320389
v 81.364502 465.811493 38.087952
v 81.364998 489.930023 38.087959
v 81.365501 489.929016 55.320663
v 81.365501 465.811493 55.320652
v 81.364998 387.139496 38.087925
v 81.364998 411.257507 38.087933
v 81.365501 411.257019 55.320633
v 81.365501 387.139496 55.320625
v -81.364998 465.811493 38.087952
v -81.366005 489.929016 55.320663
v -81.364998 489.930023 38.087959
v -81.366005 465.811493 55.320652
v -81.364998 387.138977 38.087925
v -81.366005 411.256500 55.320633
v -81.364998 411.257507 38.087933
v -81.366005 387.138977 55.320625
v -86.756500 -352.626526 61.461388
v -85.569000 -352.626526 55.176388
v -87.000504 -352.626526 69.977882
v -87.000000 -352.626526 170.917877
v 86.756500 -352.626526 61.461388
v 85.569504 -352.626526 55.176388
v 87.000999 -352.626526 69.977882
v 87.000504 -352.626526 170.917877
v -83.920998 484.503510 39.634007
v 84.008003 484.503510 39.617859
v -83.920998 484.503448 173.198151
v -80.576500 484.503448 183.899658
v -76.725502 484.503448 189.885651
v -68.778999 484.503448 194.367661
v -34.013702 484.503448 203.251175
v 0.180200 484.503448 205.713181
v 34.124748 484.503448 203.500671
v 68.738503 484.503448 194.820160
v 76.413002 484.503448 190.565659
v 80.409996 484.503448 184.860657
v 84.007500 484.503448 173.411148
v -25.654900 503.889954 171.358170
v -20.396250 497.362946 74.726158
v -20.396250 497.362946 174.489166
v -25.654900 503.869904 77.892670
v -34.163551 501.394989 172.554169
v -25.654900 503.869904 77.892670
v -25.654900 503.889954 171.358170
v -34.163551 501.384979 76.683167
v -34.163551 493.329956 176.424652
v -34.163551 501.384979 76.683167
v -34.163551 501.394989 172.554169
v -34.163551 493.340485 72.769157
v -25.654900 490.837433 177.620651
v -34.163551 493.340485 72.769157
v -34.163551 493.329956 176.424652
v -25.654850 490.854492 71.559662
v 47.970951 497.362946 170.423157
v -46.772850 497.362946 171.983673
v 45.412003 504.599945 175.017166
v -44.429749 504.599945 176.691666
v 45.412003 504.599945 175.017166
v -44.429749 504.599945 176.691666
v 41.271652 501.834930 182.450668
v -40.638500 501.834930 182.583664
v 41.271652 501.834930 182.450668
v -40.638500 501.834930 182.583664
v 41.271652 492.889465 182.450653
v -40.638500 492.889465 182.583649
v 41.271652 492.889465 182.450653
v -40.638500 492.889465 182.583649
v 45.412048 490.124939 175.017151
v -44.429699 490.124939 176.691650
v 45.412048 490.124939 175.017151
v -44.429699 490.124939 176.691650
v 47.970951 497.362946 170.423157
v -46.772850 497.362946 171.983673
v 45.412003 504.599945 175.017166
v -46.772850 497.362946 171.983673
v 45.412003 504.599945 175.017166
v -40.638500 501.834930 182.583664
v 41.271652 501.834930 182.450668
v -40.638500 492.889465 182.583649
v 41.271652 492.889465 182.450653
v -44.429699 490.124939 176.691650
v 45.412048 490.124939 175.017151
v -46.772850 497.362946 171.983673
v 30.773300 503.889954 171.358170
v 36.031948 497.362946 74.726158
v 36.031948 497.362946 174.489166
v 30.773300 503.869904 77.892670
v 22.264650 501.394989 172.554169
v 30.773300 503.869904 77.892670
v 30.773300 503.889954 171.358170
v 22.264650 501.384979 76.683167
v 22.264650 493.329956 176.424652
v 22.264650 501.384979 76.683167
v 22.264650 501.394989 172.554169
v 22.264650 493.340485 72.769157
v 36.031948 497.362946 174.489166
v 30.773350 490.854492 71.559662
v 30.773300 490.837433 177.620651
v 36.031948 497.362946 74.726158
v -27.564001 484.500977 177.368149
v -27.564001 498.807922 79.518661
v -27.564001 498.807922 177.368164
v -27.564001 484.501038 72.283157
v 29.278902 498.807922 177.368164
v 29.278950 484.501038 72.283157
v 29.278902 484.500977 177.368149
v 29.278902 498.807922 79.518661
v -27.564001 484.500977 177.368149
v 29.278902 484.500977 177.368149
v -27.564001 498.807922 79.518661
v 29.278902 498.807922 79.518661
v -27.564001 498.807922 177.368164
v -0.000450 484.500458 203.786652
v 34.086750 490.000427 201.434662
v -0.000500 490.000427 203.786652
v 34.086750 484.500458 201.434662
v 68.862495 490.000427 192.457657
v 68.862495 484.500458 192.457657
v 76.456001 490.000427 187.769150
v 76.456001 484.500458 187.769150
v 76.456001 484.500458 187.769150
v 80.316505 490.000427 181.324158
v 76.456001 490.000427 187.769150
v 80.316505 484.500458 181.324158
v 81.897003 490.000427 172.668152
v 81.897003 484.500458 172.668152
v 81.499001 490.001007 38.282059
v 81.499001 484.501038 38.282059
v -0.000500 490.000427 203.786652
v 34.420601 490.000427 206.925674
v -0.000450 490.000427 209.288162
v 34.086750 490.000427 201.434662
v 70.210495 490.000427 197.791153
v 68.862495 490.000427 192.457657
v 79.145996 490.000427 192.567657
v 76.456001 490.000427 187.769150
v 84.579498 490.000427 184.801651
v 80.316505 490.000427 181.324158
v 87.000000 490.012451 170.920151
v 81.897003 490.000427 172.668152
v 87.006004 490.011505 38.152412
v 81.499001 490.001007 38.282059
v -34.087151 484.500458 201.434662
v -34.087151 490.000427 201.434662
v -68.764503 484.500458 192.485657
v -68.764503 490.000427 192.485657
v -76.381500 484.500458 187.806656
v -76.381500 490.000427 187.806656
v -76.381500 490.000427 187.806656
v -80.326996 484.500458 181.324158
v -76.381500 484.500458 187.806656
v -80.326996 490.000427 181.324158
v -81.897499 484.500458 172.668152
v -81.897499 490.000427 172.668152
v -81.499496 484.500488 38.282059
v -81.499496 490.000488 38.282059
v -34.087151 490.000427 201.434662
v -34.421001 490.000427 206.925674
v -68.764503 490.000427 192.485657
v -70.112999 490.000427 197.819153
v -76.381500 490.000427 187.806656
v -79.071495 490.000427 192.605652
v -80.326996 490.000427 181.324158
v -84.589500 490.000427 184.801651
v -81.897499 490.000427 172.668152
v -87.000504 490.012451 170.920151
v -81.499496 490.000488 38.282059
v -87.006500 490.011505 38.152412
v 86.999496 387.139465 170.917633
v 87.000000 490.012451 170.920151
v 87.009003 387.138977 38.087128
v 87.006004 490.011505 38.152412
v 87.000504 -352.626526 170.917877
v 86.999496 -249.604553 170.917419
v 87.009003 -352.626526 38.086884
v 87.009003 -249.604538 38.086872
v -87.000000 387.139465 170.917633
v -87.009499 387.138977 38.087128
v -87.000504 490.012451 170.920151
v -87.006500 490.011505 38.152412
v -87.000000 -352.626526 170.917877
v -87.009003 -352.626526 38.086884
v -86.999496 -249.605042 170.917419
v -87.009003 -249.605011 38.086872
vn -1.0000 -0.0000 -0.0000
vn -0.9826 -0.0000 -0.1857
vn -0.9826 -0.0000 -0.1856
vn -0.9995 -0.0000 -0.0320
vn -0.9995 -0.0000 -0.0324
vn 1.0000 -0.0000 -0.0000
vn 0.9826 -0.0000 -0.1856
vn 0.9995 -0.0000 -0.0321
vn 0.9995 -0.0000 -0.0324
vn -0.9732 -0.2289 0.0218
vn -0.9484 -0.2140 -0.2340
vn -0.9582 -0.2214 -0.1810
vn -0.9751 -0.2201 -0.0279
vn -0.9777 -0.2100 -0.0089
vn -0.9747 -0.2234 -0.0000
vn 0.9732 -0.2288 0.0217
vn 0.9484 -0.2140 -0.2339
vn 0.9583 -0.2214 -0.1810
vn 0.9751 -0.2201 -0.0280
vn 0.9777 -0.2100 -0.0089
vn 0.9747 -0.2234 -0.0000
vn 0.0001 1.0000 -0.0002
vn 0.0002 1.0000 -0.0002
vn -0.0000 1.0000 -0.0002
vn -0.0002 1.0000 -0.0002
vn 0.0076 -1.0000 0.0016
vn 0.0005 -1.0000 -0.0001
vn -0.0075 -1.0000 0.0016
vn -0.0005 -1.0000 -0.0001
vn -0.0002 -1.0000 -0.0000
vn -0.0003 -1.0000 -0.0000
vn 0.0002 -1.0000 -0.0000
vn -0.0000 -0.0000 1.0000
vn -0.0113 -0.0027 0.9999
vn 0.0113 -0.0027 0.9999
vn 0.0002 -0.0000 1.0000
vn -0.0113 -0.0028 0.9999
vn -0.0002 -0.0000 1.0000
vn 0.0113 -0.0028 0.9999
vn 0.0001 -0.0000 1.0000
vn -0.0001 -0.0000 1.0000
vn 1.0000 -0.0000 -0.0001
vn -1.0000 -0.0000 -0.0001
vn -0.9996 -0.0000 -0.0286
vn 0.9996 -0.0000 -0.0287
vn -0.0000 1.0000 -0.0000
vn 0.7787 0.6274 -0.0000
vn 0.7777 0.6286 -0.0001
vn -0.2814 0.9596 -0.0002
vn -0.2803 0.9599 -0.0001
vn 0.2811 0.9597 0.0001
vn 0.2805 0.9599 0.0002
vn -0.0139 0.5324 -0.8464
vn -0.0156 0.5488 -0.8358
vn -0.0066 -0.9360 -0.3518
vn -0.0007 -0.9054 -0.4245
vn 0.0016 -0.0000 1.0000
vn -0.0006 0.9372 -0.3488
vn -0.0078 0.9072 -0.4206
vn -0.0158 -0.5318 -0.8467
vn 0.0138 0.5483 0.8361
vn 0.0007 0.9054 0.4245
vn -0.7786 0.6275 0.0001
vn -0.7778 0.6285 -0.0000
vn 0.0688 -0.0000 0.9976
vn 0.2499 -0.0000 0.9683
vn 0.5254 -0.0000 0.8509
vn 0.8579 -0.0000 0.5139
vn 0.9837 -0.0000 0.1796
vn 1.0000 -0.0000 -0.0030
vn -0.0006 1.0000 0.0008
vn -0.0025 1.0000 -0.0005
vn -0.0024 1.0000 -0.0000
vn -0.0019 1.0000 -0.0000
vn -0.0688 -0.0000 0.9976
vn -0.2499 -0.0000 0.9683
vn -0.5234 -0.0000 0.8521
vn -0.8542 -0.0000 0.5199
vn -0.9839 -0.0000 0.1785
vn -1.0000 -0.0000 -0.0030
vn 0.0022 1.0000 0.0005
vn 0.0024 1.0000 -0.0000
vn 0.0020 1.0000 -0.0000
vn 1.0000 -0.0000 0.0001
vn -1.0000 -0.0000 0.0001
vt 0.789483 0.998620
vt 0.000578 0.733452
vt 0.000505 0.998937
vt 0.789535 0.733588
vt 0.789582 0.711366
vt 0.000584 0.691541
vt 0.000581 0.710826
vt 0.789587 0.692082
vt 0.212045 0.689036
vt 0.999653 0.689353
vt 0.999581 0.423771
vt 0.211993 0.423908
vt 0.211945 0.401677
vt 0.999578 0.401137
vt 0.999575 0.381845
vt 0.211941 0.382386
vt 0.878204 0.999727
vt 0.976197 0.999640
vt 0.999500 0.870880
vt 0.878223 0.707431
vt 0.994637 0.707465
vt 0.993134 0.690690
vt 0.878164 0.690609
vt 0.878203 0.730161
vt 0.121619 0.690168
vt 0.000499 0.561331
vt 0.023531 0.690099
vt 0.121599 0.397925
vt 0.006791 0.381130
vt 0.005305 0.397906
vt 0.121599 0.381146
vt 0.121599 0.420661
vt 0.537586 0.024557
vt 0.537586 0.086899
vt 0.528025 0.024661
vt 0.527383 0.088435
vt 0.537586 0.024557
vt 0.528025 0.024661
vt 0.537586 0.086899
vt 0.527383 0.088435
vt 0.537586 0.024557
vt 0.528025 0.024661
vt 0.537586 0.086899
vt 0.527383 0.088435
vt 0.537586 0.024557
vt 0.537586 0.086899
vt 0.528025 0.024661
vt 0.527383 0.088435
vt 0.537586 0.024557
vt 0.537586 0.086899
vt 0.528025 0.024661
vt 0.527383 0.088435
vt 0.537586 0.024557
vt 0.528025 0.024661
vt 0.537586 0.086899
vt 0.527383 0.088435
vt 0.863703 0.380790
vt 0.863703 0.339219
vt 0.873906 0.339219
vt 0.873906 0.380789
vt 0.863703 0.380790
vt 0.873906 0.339219
vt 0.863703 0.339219
vt 0.873906 0.380789
vt 0.863703 0.380790
vt 0.863703 0.339219
vt 0.873906 0.339219
vt 0.873906 0.380789
vt 0.863703 0.380790
vt 0.873906 0.339219
vt 0.863703 0.339219
vt 0.873906 0.380789
vt 0.863703 0.380790
vt 0.863703 0.339219
vt 0.873906 0.339219
vt 0.873906 0.380789
vt 0.863703 0.380790
vt 0.873906 0.339219
vt 0.863703 0.339219
vt 0.873906 0.380789
vt 0.863703 0.380790
vt 0.863703 0.339219
vt 0.873906 0.339219
vt 0.873906 0.380789
vt 0.863703 0.380790
vt 0.873906 0.339219
vt 0.863703 0.339219
vt 0.873906 0.380789
vt 0.927105 0.004063
vt 0.995937 0.004063
vt 0.995937 0.069060
vt 0.926848 0.069643
vt 0.927105 0.004063
vt 0.995937 0.004063
vt 0.995937 0.069060
vt 0.926848 0.069643
vt 0.927105 0.004063
vt 0.995937 0.069060
vt 0.995937 0.004063
vt 0.926848 0.069643
vt 0.927105 0.004063
vt 0.995937 0.069060
vt 0.995937 0.004063
vt 0.926848 0.069643
vt 0.927105 0.004063
vt 0.995937 0.004063
vt 0.995937 0.069060
vt 0.926848 0.069643
vt 0.927105 0.004063
vt 0.995937 0.004063
vt 0.995937 0.069060
vt 0.926848 0.069643
vt 0.927105 0.004063
vt 0.995937 0.069060
vt 0.995937 0.004063
vt 0.926848 0.069643
vt 0.927105 0.004063
vt 0.995937 0.069060
vt 0.995937 0.004063
vt 0.926848 0.069643
vt 0.790156 0.707330
vt 0.790156 0.690528
vt 0.790156 0.730096
vt 0.790156 0.999982
vt 0.208886 0.397932
vt 0.208886 0.381146
vt 0.208886 0.420678
vt 0.208886 0.690321
vt 0.870917 0.024708
vt 0.532535 0.024673
vt 0.870917 0.310074
vt 0.864178 0.332937
vt 0.856418 0.345726
vt 0.840406 0.355303
vt 0.770352 0.374283
vt 0.701451 0.379543
vt 0.633052 0.374816
vt 0.563303 0.356269
vt 0.547840 0.347179
vt 0.539785 0.334991
vt 0.532536 0.310529
vt 0.926848 0.069643
vt 0.999755 0.380800
vt 0.999755 0.069643
vt 0.926848 0.380800
vt 0.926848 0.069643
vt 0.999755 0.380800
vt 0.999755 0.069643
vt 0.926848 0.380800
vt 0.926848 0.069643
vt 0.999755 0.380800
vt 0.999755 0.069643
vt 0.926848 0.380800
vt 0.926848 0.069643
vt 0.999755 0.380800
vt 0.999755 0.069643
vt 0.926848 0.380800
vt 0.999755 0.069643
vt 0.926848 0.069643
vt 0.999755 0.380800
vt 0.926848 0.380800
vt 0.926848 0.380800
vt 0.999755 0.380800
vt 0.926848 0.069643
vt 0.999755 0.069643
vt 0.926848 0.380800
vt 0.999755 0.380800
vt 0.926848 0.069643
vt 0.999755 0.069643
vt 0.926848 0.380800
vt 0.999755 0.380800
vt 0.926848 0.069643
vt 0.999755 0.069643
vt 0.926848 0.380800
vt 0.999755 0.380800
vt 0.926848 0.069643
vt 0.999755 0.069643
vt 0.926848 0.069643
vt 0.999755 0.380800
vt 0.999755 0.069643
vt 0.926848 0.380800
vt 0.999755 0.069643
vt 0.926848 0.380800
vt 0.999755 0.069643
vt 0.926848 0.380800
vt 0.999755 0.069643
vt 0.926848 0.380800
vt 0.926848 0.069643
vt 0.999755 0.380800
vt 0.999755 0.069643
vt 0.926848 0.380800
vt 0.926848 0.069643
vt 0.999755 0.380800
vt 0.999755 0.069643
vt 0.926848 0.380800
vt 0.926848 0.069643
vt 0.999755 0.380800
vt 0.999755 0.069643
vt 0.926848 0.380800
vt 0.926848 0.069643
vt 0.999755 0.380800
vt 0.999755 0.069643
vt 0.926848 0.380800
vt 0.920543 0.375703
vt 0.879264 0.000549
vt 0.879264 0.375703
vt 0.920543 0.000549
vt 0.920543 0.375703
vt 0.879264 0.000549
vt 0.879264 0.375703
vt 0.920543 0.000549
vt 0.879264 0.000549
vt 0.920543 0.000549
vt 0.920543 0.375703
vt 0.879264 0.375703
vt 0.920543 0.000549
vt 0.863134 0.277922
vt 0.863134 0.277922
vt 0.863134 0.277922
vt 0.863134 0.277922
vt 0.863134 0.277922
vt 0.863134 0.277922
vt 0.863134 0.277922
vt 0.863134 0.277922
vt 0.864676 0.274603
vt 0.864676 0.274603
vt 0.864676 0.274603
vt 0.864676 0.274603
vt 0.864676 0.274603
vt 0.864676 0.274603
vt 0.864676 0.274603
vt 0.864676 0.274603
vt 0.698901 0.373022
vt 0.629812 0.380235
vt 0.698036 0.380142
vt 0.630475 0.368815
vt 0.570200 0.368553
vt 0.572879 0.357461
vt 0.541813 0.352487
vt 0.547159 0.342507
vt 0.532931 0.342209
vt 0.541402 0.334977
vt 0.528025 0.300565
vt 0.538167 0.304157
vt 0.528025 0.024661
vt 0.538957 0.024661
vt 0.863134 0.277922
vt 0.863134 0.277922
vt 0.863134 0.277922
vt 0.863134 0.277922
vt 0.863134 0.277922
vt 0.863134 0.277922
vt 0.862020 0.274603
vt 0.862020 0.274603
vt 0.862020 0.274603
vt 0.862020 0.274603
vt 0.862020 0.274603
vt 0.862020 0.274603
vt 0.862020 0.274603
vt 0.862020 0.274603
vt 0.767876 0.368808
vt 0.768539 0.380228
vt 0.828608 0.355628
vt 0.831287 0.366720
vt 0.854328 0.342331
vt 0.859674 0.352311
vt 0.860085 0.334801
vt 0.868556 0.342033
vt 0.863671 0.304157
vt 0.873813 0.300565
vt 0.862881 0.024661
vt 0.873813 0.024661
vt 0.252380 0.379696
vt 0.493814 0.379696
vt 0.252380 0.000297
vt 0.493814 0.000297
vt 0.000087 0.379704
vt 0.241720 0.379704
vt 0.000087 0.000000
vt 0.241720 0.000000
vt 0.252380 0.379696
vt 0.252380 0.000297
vt 0.493814 0.379696
vt 0.493814 0.000297
vt 0.000087 0.379704
vt 0.000087 0.000000
vt 0.241720 0.379704
vt 0.241720 0.000000
s 0
usemtl Mat_11.001
f 1/1/1 3/3/1 2/2/1
f 2/2/1 4/4/1 1/1/1
f 5/5/2 7/7/2 6/6/2
f 6/6/3 8/8/3 5/5/3
f 4/4/4 2/2/4 7/7/4
f 7/7/5 5/5/5 4/4/5
f 9/9/6 11/11/6 10/10/6
f 11/11/6 9/9/6 12/12/6
f 13/13/7 15/15/7 14/14/7
f 15/15/7 13/13/7 16/16/7
f 12/12/8 14/14/8 11/11/8
f 14/14/9 12/12/9 13/13/9
f 17/17/10 19/19/10 18/18/10
f 20/20/11 22/22/11 21/21/11
f 22/22/12 20/20/12 23/23/12
f 21/21/13 24/24/13 20/20/13
f 17/17/14 21/21/14 19/19/14
f 21/21/15 17/17/15 24/24/15
f 25/25/16 27/27/16 26/26/16
f 28/28/17 30/30/17 29/29/17
f 29/29/18 31/31/18 28/28/18
f 30/30/19 28/28/19 32/32/19
f 25/25/20 26/26/20 30/30/20
f 30/30/21 32/32/21 25/25/21
f 33/33/22 34/34/22 35/35/22
f 36/36/23 35/35/23 34/34/23
f 37/37/24 38/38/24 39/39/24
f 40/40/25 39/39/25 38/38/25
f 41/41/26 42/42/26 43/43/26
f 44/44/27 43/43/27 42/42/27
f 45/45/28 46/46/28 47/47/28
f 48/48/29 47/47/29 46/46/29
f 49/49/30 51/51/30 50/50/30
f 52/52/31 50/50/31 51/51/31
f 53/53/32 55/55/32 54/54/32
f 56/56/32 54/54/32 55/55/32
f 57/57/33 58/58/33 59/59/33
f 59/59/34 60/60/34 57/57/34
f 61/61/33 62/62/33 63/63/33
f 62/62/35 61/61/35 64/64/35
f 65/65/36 66/66/36 67/67/36
f 67/67/37 68/68/37 65/65/37
f 69/69/38 70/70/38 71/71/38
f 70/70/39 69/69/39 72/72/39
f 73/73/33 74/74/33 75/75/33
f 75/75/34 76/76/34 73/73/34
f 77/77/33 78/78/33 79/79/33
f 78/78/35 77/77/35 80/80/35
f 81/81/40 82/82/40 83/83/40
f 83/83/37 84/84/37 81/81/37
f 85/85/41 86/86/41 87/87/41
f 86/86/39 85/85/39 88/88/39
f 89/89/42 90/90/42 91/91/42
f 91/91/42 92/92/42 89/89/42
f 93/93/42 94/94/42 95/95/42
f 95/95/42 96/96/42 93/93/42
f 97/97/43 98/98/43 99/99/43
f 98/98/1 97/97/1 100/100/1
f 101/101/43 102/102/43 103/103/43
f 102/102/1 101/101/1 104/104/1
f 105/105/6 106/106/6 107/107/6
f 107/107/42 108/108/42 105/105/42
f 109/109/6 110/110/6 111/111/6
f 111/111/6 112/112/6 109/109/6
f 113/113/43 114/114/43 115/115/43
f 114/114/43 113/113/43 116/116/43
f 117/117/43 118/118/43 119/119/43
f 118/118/43 117/117/43 120/120/43
f 121/121/3 23/23/3 20/20/3
f 23/23/2 121/121/2 122/122/2
f 123/123/44 20/20/44 24/24/44
f 20/20/44 123/123/44 121/121/44
f 124/124/1 24/24/1 17/17/1
f 24/24/1 124/124/1 123/123/1
f 125/125/7 28/28/7 31/31/7
f 31/31/7 126/126/7 125/125/7
f 127/127/45 32/32/45 28/28/45
f 28/28/45 125/125/45 127/127/45
f 128/128/6 25/25/6 32/32/6
f 32/32/6 127/127/6 128/128/6
f 129/129/46 131/131/46 130/130/46
f 132/132/46 130/130/46 131/131/46
f 133/133/46 130/130/46 132/132/46
f 134/134/46 130/130/46 133/133/46
f 135/135/46 130/130/46 134/134/46
f 136/136/46 130/130/46 135/135/46
f 137/137/46 130/130/46 136/136/46
f 138/138/46 130/130/46 137/137/46
f 139/139/46 130/130/46 138/138/46
f 140/140/46 130/130/46 139/139/46
f 141/141/46 130/130/46 140/140/46
f 142/142/47 144/144/47 143/143/47
f 142/142/48 143/143/48 145/145/48
f 146/146/49 148/148/49 147/147/49
f 146/146/50 147/147/50 149/149/50
f 150/150/1 152/152/1 151/151/1
f 150/150/1 151/151/1 153/153/1
f 154/154/51 155/155/51 156/156/51
f 154/154/52 157/157/52 155/155/52
f 158/158/53 159/159/53 160/160/53
f 159/159/54 161/161/54 160/160/54
f 162/162/55 164/164/55 163/163/55
f 163/163/56 164/164/56 165/165/56
f 166/166/57 167/167/57 168/168/57
f 167/167/57 169/169/57 168/168/57
f 170/170/58 172/172/58 171/171/58
f 171/171/59 172/172/59 173/173/59
f 174/174/60 175/175/60 176/176/60
f 175/175/61 176/176/61 177/177/61
f 178/178/53 158/158/53 179/179/53
f 178/178/54 179/179/54 161/161/54
f 164/164/55 163/163/55 180/180/55
f 164/164/62 163/163/62 181/181/62
f 168/168/57 182/182/57 167/167/57
f 168/168/57 167/167/57 183/183/57
f 172/172/58 171/171/58 184/184/58
f 172/172/59 185/185/59 171/171/59
f 176/176/60 186/186/60 175/175/60
f 176/176/61 187/187/61 175/175/61
f 188/188/47 190/190/47 189/189/47
f 188/188/48 189/189/48 191/191/48
f 192/192/49 194/194/49 193/193/49
f 192/192/50 193/193/50 195/195/50
f 196/196/6 197/197/6 198/198/6
f 196/196/6 199/199/6 197/197/6
f 200/200/63 201/201/63 202/202/63
f 200/200/64 203/203/64 201/201/64
f 204/204/1 206/206/1 205/205/1
f 205/205/1 207/207/1 204/204/1
f 208/208/6 210/210/6 209/209/6
f 209/209/1 208/208/1 211/211/1
f 208/208/33 206/206/33 212/212/33
f 212/212/33 213/213/33 208/208/33
f 206/206/1 214/214/1 212/212/1
f 207/207/1 212/212/1 214/214/1
f 213/213/6 209/209/6 208/208/6
f 215/215/1 209/209/1 208/208/1
f 216/216/33 212/212/33 208/208/33
f 210/210/33 208/208/33 212/212/33
f 217/217/65 218/218/65 219/219/65
f 218/218/65 217/217/65 220/220/65
f 220/220/66 221/221/66 218/218/66
f 221/221/66 220/220/66 222/222/66
f 222/222/67 223/223/67 221/221/67
f 223/223/67 222/222/67 224/224/67
f 225/225/68 226/226/68 227/227/68
f 226/226/68 225/225/68 228/228/68
f 228/228/69 229/229/69 226/226/69
f 229/229/69 228/228/69 230/230/69
f 230/230/70 231/231/70 229/229/70
f 231/231/70 230/230/70 232/232/70
f 233/233/46 235/235/46 234/234/46
f 234/234/46 236/236/46 233/233/46
f 236/236/46 234/234/46 237/237/46
f 237/237/46 238/238/46 236/236/46
f 238/238/46 237/237/46 239/239/46
f 239/239/46 240/240/46 238/238/46
f 240/240/46 239/239/46 241/241/46
f 241/241/46 242/242/46 240/240/46
f 242/242/71 241/241/71 243/243/71
f 243/243/72 244/244/72 242/242/72
f 244/244/73 243/243/73 245/245/73
f 245/245/74 246/246/74 244/244/74
f 219/219/75 247/247/75 217/217/75
f 247/247/75 219/219/75 248/248/75
f 248/248/76 249/249/76 247/247/76
f 249/249/76 248/248/76 250/250/76
f 250/250/77 251/251/77 249/249/77
f 251/251/77 250/250/77 252/252/77
f 253/253/78 254/254/78 255/255/78
f 254/254/78 253/253/78 256/256/78
f 256/256/79 257/257/79 254/254/79
f 257/257/79 256/256/79 258/258/79
f 258/258/80 259/259/80 257/257/80
f 259/259/80 258/258/80 260/260/80
f 235/235/46 233/233/46 261/261/46
f 261/261/46 262/262/46 235/235/46
f 262/262/46 261/261/46 263/263/46
f 263/263/46 264/264/46 262/262/46
f 264/264/46 263/263/46 265/265/46
f 265/265/46 266/266/46 264/264/46
f 266/266/46 265/265/46 267/267/46
f 267/267/46 268/268/46 266/266/46
f 268/268/46 267/267/46 269/269/46
f 269/269/81 270/270/81 268/268/81
f 270/270/82 269/269/82 271/271/82
f 271/271/83 272/272/83 270/270/83
f 273/273/84 275/275/84 274/274/84
f 276/276/6 274/274/6 275/275/6
f 277/277/84 279/279/84 278/278/84
f 280/280/84 278/278/84 279/279/84
f 281/281/85 283/283/85 282/282/85
f 284/284/1 282/282/1 283/283/1
f 285/285/85 287/287/85 286/286/85
f 288/288/85 286/286/85 287/287/85
