# Blender 3.3.21
# www.blender.org
mtllib boka_er2r.mtl
o zdsEMU_ER2R-7005_01_00.001
v -1.739990 -4.992101 3.418348
v -1.740000 7.742879 1.380453
v -1.740000 7.742789 3.418353
v -1.739990 -4.992190 1.379188
v -1.735100 -4.992190 1.228198
v -1.711370 7.742879 1.102502
v -1.735120 7.742898 1.228202
v -1.711360 -4.992190 1.102508
v 1.739990 -4.992091 3.418348
v 1.739990 7.742789 3.418353
v 1.740000 7.742889 1.380453
v 1.739990 -4.992180 1.379188
v 1.735100 -4.992190 1.228198
v 1.735110 7.742898 1.228202
v 1.711370 7.742879 1.102502
v 1.711360 -4.992190 1.102508
v -1.740010 -8.126561 3.418357
v -1.456670 -9.331441 3.418347
v -1.411020 -9.617401 2.453817
v -1.735130 -8.126881 1.229227
v -1.422310 -9.512900 1.229237
v -1.395460 -9.494419 1.103527
v -1.711390 -8.126881 1.103527
v -1.740010 -8.126881 1.399557
v 1.740020 -8.126561 3.418357
v 1.411030 -9.617401 2.453817
v 1.456720 -9.331441 3.418347
v 1.735130 -8.126881 1.229227
v 1.395490 -9.494419 1.103527
v 1.422320 -9.512900 1.229237
v 1.711390 -8.126881 1.103527
v 1.740020 -8.126881 1.399557
v 1.627300 7.742790 0.761759
v 1.627300 7.742889 1.229643
v 1.740180 7.742780 0.761743
v 1.739990 7.742889 1.379192
v -1.627300 7.742780 0.761759
v -1.740190 7.742780 0.761743
v -1.627310 7.742879 1.229643
v -1.740000 7.742879 1.380453
v 1.627300 -4.992950 0.761754
v 1.740180 -4.992091 0.761737
v 1.627300 -4.992210 1.229638
v 1.739990 -4.992180 1.379188
v -1.627300 -4.992950 0.761754
v -1.627300 -4.992220 1.229638
v -1.740180 -4.992100 0.761737
v -1.739990 -4.992190 1.379188
v 1.627300 -7.052510 0.761764
v 1.627310 -7.052500 1.229638
v 1.740180 -7.052530 0.761738
v 1.739990 -7.052540 1.380958
v -1.627290 -7.052510 0.761764
v -1.740180 -7.052530 0.761738
v -1.627300 -7.052510 1.229638
v -1.739980 -7.052540 1.380958
v 1.627350 -4.995780 0.761770
v 1.627300 -5.468901 0.761764
v 1.740180 -5.468901 0.761764
v 1.740130 -4.995562 0.763043
v -1.627340 -4.995780 0.761770
v -1.740170 -5.468911 0.761764
v -1.627290 -5.468911 0.761764
v -1.740130 -4.995572 0.763043
v 1.627350 -6.579381 0.761770
v 1.627300 -7.052510 0.761764
v 1.740180 -7.052530 0.761738
v 1.740130 -6.579161 0.763043
v -1.627340 -6.579381 0.761770
v -1.740180 -7.052530 0.761738
v -1.627290 -7.052510 0.761764
v -1.740120 -6.579171 0.763043
v 1.627340 9.800020 0.761775
v 1.627290 9.326890 0.761769
v 1.740170 9.326890 0.761769
v 1.740120 9.800230 0.763048
v -1.627350 9.800010 0.761775
v -1.740180 9.326890 0.761769
v -1.627300 9.326890 0.761769
v -1.740130 9.800230 0.763048
v 1.627340 8.216419 0.761775
v 1.627300 7.742790 0.761759
v 1.740180 7.742780 0.761743
v 1.740120 8.216629 0.763048
v -1.627350 8.216409 0.761775
v -1.740190 7.742780 0.761743
v -1.627300 7.742780 0.761759
v -1.740130 8.216629 0.763048
v 1.627300 -5.475320 0.761754
v 1.627300 -4.992950 0.761754
v 1.627320 -4.992970 1.106408
v 1.627320 -5.475320 1.106408
v 1.627300 -7.051321 0.761754
v 1.627300 -6.574100 0.761754
v 1.627320 -6.574121 1.106408
v 1.627320 -7.051321 1.106408
v -1.627300 -5.475320 0.761754
v -1.627320 -4.992970 1.106408
v -1.627300 -4.992950 0.761754
v -1.627310 -5.475320 1.106408
v -1.627300 -7.051321 0.761754
v -1.627320 -6.574121 1.106408
v -1.627300 -6.574100 0.761754
v -1.627310 -7.051321 1.106408
v 1.627290 9.316230 0.761759
v 1.627300 9.798600 0.761759
v 1.627310 9.798580 1.106413
v 1.627310 9.316230 1.106413
v 1.627300 7.742790 0.761759
v 1.627300 8.225150 0.761759
v 1.627310 8.225141 1.106413
v 1.627310 7.742790 1.106413
v -1.627300 9.316230 0.761759
v -1.627320 9.798580 1.106413
v -1.627300 9.798600 0.761759
v -1.627320 9.316230 1.106413
v -1.627300 7.742780 0.761759
v -1.627320 8.225130 1.106413
v -1.627300 8.225150 0.761759
v -1.627320 7.742780 1.106413
v -1.735130 -7.052530 1.229228
v -1.711380 -7.052530 1.103528
v -1.740010 -7.052530 1.399558
v -1.740000 -7.052531 3.418358
v 1.735130 -7.052530 1.229228
v 1.711390 -7.052530 1.103528
v 1.740020 -7.052530 1.399558
v 1.740010 -7.052531 3.418358
v -1.678420 9.690070 0.792680
v 1.680160 9.690070 0.792357
v -1.678420 9.690069 3.463963
v -1.611530 9.690069 3.677993
v -1.534510 9.690069 3.797713
v -1.375580 9.690069 3.887353
v -0.680274 9.690069 4.065023
v 0.003604 9.690069 4.114264
v 0.682495 9.690069 4.070014
v 1.374770 9.690069 3.896403
v 1.528260 9.690069 3.811313
v 1.608200 9.690069 3.697213
v 1.680150 9.690069 3.468223
v -0.513098 10.077799 3.427163
v -0.407925 9.947259 1.494523
v -0.407925 9.947259 3.489783
v -0.513098 10.077398 1.557853
v -0.683271 10.027900 3.451083
v -0.513098 10.077398 1.557853
v -0.513098 10.077799 3.427163
v -0.683271 10.027699 1.533663
v -0.683271 9.866599 3.528493
v -0.683271 10.027699 1.533663
v -0.683271 10.027900 3.451083
v -0.683271 9.866810 1.455383
v -0.513098 9.816749 3.552413
v -0.683271 9.866810 1.455383
v -0.683271 9.866599 3.528493
v -0.513097 9.817090 1.431193
v 0.959419 9.947259 3.408463
v -0.935457 9.947259 3.439673
v 0.908240 10.091999 3.500343
v -0.888595 10.091999 3.533833
v 0.908240 10.091999 3.500343
v -0.888595 10.091999 3.533833
v 0.825433 10.036698 3.649013
v -0.812770 10.036698 3.651673
v 0.825433 10.036698 3.649013
v -0.812770 10.036698 3.651673
v 0.825433 9.857789 3.649013
v -0.812770 9.857789 3.651673
v 0.825433 9.857789 3.649013
v -0.812770 9.857789 3.651673
v 0.908241 9.802499 3.500343
v -0.888594 9.802499 3.533833
v 0.908241 9.802499 3.500343
v -0.888594 9.802499 3.533833
v 0.959419 9.947259 3.408463
v -0.935457 9.947259 3.439673
v 0.908240 10.091999 3.500343
v -0.935457 9.947259 3.439673
v 0.908240 10.091999 3.500343
v -0.812770 10.036698 3.651673
v 0.825433 10.036698 3.649013
v -0.812770 9.857789 3.651673
v 0.825433 9.857789 3.649013
v -0.888594 9.802499 3.533833
v 0.908241 9.802499 3.500343
v -0.935457 9.947259 3.439673
v 0.615466 10.077799 3.427163
v 0.720639 9.947259 1.494523
v 0.720639 9.947259 3.489783
v 0.615466 10.077398 1.557853
v 0.445293 10.027900 3.451083
v 0.615466 10.077398 1.557853
v 0.615466 10.077799 3.427163
v 0.445293 10.027699 1.533663
v 0.445293 9.866599 3.528493
v 0.445293 10.027699 1.533663
v 0.445293 10.027900 3.451083
v 0.445293 9.866810 1.455383
v 0.720639 9.947259 3.489783
v 0.615467 9.817090 1.431193
v 0.615466 9.816749 3.552413
v 0.720639 9.947259 1.494523
v -0.551280 9.690020 3.547363
v -0.551280 9.976158 1.590373
v -0.551280 9.976158 3.547363
v -0.551280 9.690021 1.445663
v 0.585578 9.976158 3.547363
v 0.585579 9.690021 1.445663
v 0.585578 9.690020 3.547363
v 0.585578 9.976158 1.590373
v -0.551280 9.690020 3.547363
v 0.585578 9.690020 3.547363
v -0.551280 9.976158 1.590373
v 0.585578 9.976158 1.590373
v -0.551280 9.976158 3.547363
v -0.000009 9.690009 4.075733
v 0.681735 9.800009 4.028693
v -0.000010 9.800009 4.075733
v 0.681735 9.690009 4.028693
v 1.377250 9.800009 3.849153
v 1.377250 9.690009 3.849153
v 1.529120 9.800009 3.755383
v 1.529120 9.690009 3.755383
v 1.529120 9.690009 3.755383
v 1.606330 9.800009 3.626483
v 1.529120 9.800009 3.755383
v 1.606330 9.690009 3.626483
v 1.637940 9.800009 3.453363
v 1.637940 9.690009 3.453363
v 1.629980 9.800020 0.765641
v 1.629980 9.690021 0.765641
v -0.000010 9.800009 4.075733
v 0.688412 9.800009 4.138514
v -0.000009 9.800009 4.185763
v 0.681735 9.800009 4.028693
v 1.404210 9.800009 3.955823
v 1.377250 9.800009 3.849153
v 1.582920 9.800009 3.851353
v 1.529120 9.800009 3.755383
v 1.691590 9.800009 3.696033
v 1.606330 9.800009 3.626483
v 1.740000 9.800249 3.418403
v 1.637940 9.800009 3.453363
v 1.740120 9.800230 0.763048
v 1.629980 9.800020 0.765641
v -0.681743 9.690009 4.028693
v -0.681743 9.800009 4.028693
v -1.375290 9.690009 3.849713
v -1.375290 9.800009 3.849713
v -1.527630 9.690009 3.756133
v -1.527630 9.800009 3.756133
v -1.527630 9.800009 3.756133
v -1.606540 9.690009 3.626483
v -1.527630 9.690009 3.756133
v -1.606540 9.800009 3.626483
v -1.637950 9.690009 3.453363
v -1.637950 9.800009 3.453363
v -1.629990 9.690010 0.765641
v -1.629990 9.800010 0.765641
v -0.681743 9.800009 4.028693
v -0.688420 9.800009 4.138514
v -1.375290 9.800009 3.849713
v -1.402260 9.800009 3.956383
v -1.527630 9.800009 3.756133
v -1.581430 9.800009 3.852113
v -1.606540 9.800009 3.626483
v -1.691790 9.800009 3.696033
v -1.637950 9.800009 3.453363
v -1.740010 9.800249 3.418403
v -1.629990 9.800010 0.765641
v -1.740130 9.800230 0.763048
v 1.739990 7.742789 3.418353
v 1.740000 9.800249 3.418403
v 1.740180 7.742780 0.761743
v 1.740120 9.800230 0.763048
v 1.740010 -7.052531 3.418358
v 1.739990 -4.992091 3.418348
v 1.740180 -7.052530 0.761738
v 1.740180 -4.992091 0.761737
v -1.740000 7.742789 3.418353
v -1.740190 7.742780 0.761743
v -1.740010 9.800249 3.418403
v -1.740130 9.800230 0.763048
v -1.740000 -7.052531 3.418358
v -1.740180 -7.052530 0.761738
v -1.739990 -4.992101 3.418348
v -1.740180 -4.992100 0.761737
vn -1.0000 -0.0000 -0.0000
vn -0.9826 -0.0000 -0.1857
vn -0.9826 -0.0000 -0.1856
vn -0.9995 -0.0000 -0.0320
vn -0.9995 -0.0000 -0.0324
vn 1.0000 -0.0000 -0.0000
vn 0.9826 -0.0000 -0.1856
vn 0.9995 -0.0000 -0.0321
vn 0.9995 -0.0000 -0.0324
vn -0.9732 -0.2289 0.0218
vn -0.9484 -0.2140 -0.2340
vn -0.9582 -0.2214 -0.1810
vn -0.9751 -0.2201 -0.0279
vn -0.9777 -0.2100 -0.0089
vn -0.9747 -0.2234 -0.0000
vn 0.9732 -0.2288 0.0217
vn 0.9484 -0.2140 -0.2339
vn 0.9583 -0.2214 -0.1810
vn 0.9751 -0.2201 -0.0280
vn 0.9777 -0.2100 -0.0089
vn 0.9747 -0.2234 -0.0000
vn 0.0001 1.0000 -0.0002
vn 0.0002 1.0000 -0.0002
vn -0.0000 1.0000 -0.0002
vn -0.0002 1.0000 -0.0002
vn 0.0076 -1.0000 0.0016
vn 0.0005 -1.0000 -0.0001
vn -0.0075 -1.0000 0.0016
vn -0.0005 -1.0000 -0.0001
vn -0.0002 -1.0000 -0.0000
vn -0.0003 -1.0000 -0.0000
vn 0.0002 -1.0000 -0.0000
vn -0.0000 -0.0000 1.0000
vn -0.0113 -0.0027 0.9999
vn 0.0113 -0.0027 0.9999
vn 0.0002 -0.0000 1.0000
vn -0.0113 -0.0028 0.9999
vn -0.0002 -0.0000 1.0000
vn 0.0113 -0.0028 0.9999
vn 0.0001 -0.0000 1.0000
vn -0.0001 -0.0000 1.0000
vn 1.0000 -0.0000 -0.0001
vn -1.0000 -0.0000 -0.0001
vn -0.9996 -0.0000 -0.0286
vn 0.9996 -0.0000 -0.0287
vn -0.0000 1.0000 -0.0000
vn 0.7787 0.6274 -0.0000
vn 0.7777 0.6286 -0.0001
vn -0.2814 0.9596 -0.0002
vn -0.2803 0.9599 -0.0001
vn 0.2811 0.9597 0.0001
vn 0.2805 0.9599 0.0002
vn -0.0139 0.5324 -0.8464
vn -0.0156 0.5488 -0.8358
vn -0.0066 -0.9360 -0.3518
vn -0.0007 -0.9054 -0.4245
vn 0.0016 -0.0000 1.0000
vn -0.0006 0.9372 -0.3488
vn -0.0078 0.9072 -0.4206
vn -0.0158 -0.5318 -0.8467
vn 0.0138 0.5483 0.8361
vn 0.0007 0.9054 0.4245
vn -0.7786 0.6275 0.0001
vn -0.7778 0.6285 -0.0000
vn 0.0688 -0.0000 0.9976
vn 0.2499 -0.0000 0.9683
vn 0.5254 -0.0000 0.8509
vn 0.8579 -0.0000 0.5139
vn 0.9837 -0.0000 0.1796
vn 1.0000 -0.0000 -0.0030
vn -0.0006 1.0000 0.0008
vn -0.0025 1.0000 -0.0005
vn -0.0024 1.0000 -0.0000
vn -0.0019 1.0000 -0.0000
vn -0.0688 -0.0000 0.9976
vn -0.2499 -0.0000 0.9683
vn -0.5234 -0.0000 0.8521
vn -0.8542 -0.0000 0.5199
vn -0.9839 -0.0000 0.1785
vn -1.0000 -0.0000 -0.0030
vn 0.0022 1.0000 0.0005
vn 0.0024 1.0000 -0.0000
vn 0.0020 1.0000 -0.0000
vn 1.0000 -0.0000 0.0001
vn -1.0000 -0.0000 0.0001
vt 0.789483 0.998620
vt 0.000578 0.733452
vt 0.000505 0.998937
vt 0.789535 0.733588
vt 0.789582 0.711366
vt 0.000584 0.691541
vt 0.000581 0.710826
vt 0.789587 0.692082
vt 0.212045 0.689036
vt 0.999653 0.689353
vt 0.999581 0.423771
vt 0.211993 0.423908
vt 0.211945 0.401677
vt 0.999578 0.401137
vt 0.999575 0.381845
vt 0.211941 0.382386
vt 0.878204 0.999727
vt 0.976197 0.999640
vt 0.999500 0.870880
vt 0.878223 0.707431
vt 0.994637 0.707465
vt 0.993134 0.690690
vt 0.878164 0.690609
vt 0.878203 0.730161
vt 0.121619 0.690168
vt 0.000499 0.561331
vt 0.023531 0.690099
vt 0.121599 0.397925
vt 0.006791 0.381130
vt 0.005305 0.397906
vt 0.121599 0.381146
vt 0.121599 0.420661
vt 0.537586 0.024557
vt 0.537586 0.086899
vt 0.528025 0.024661
vt 0.527383 0.088435
vt 0.537586 0.024557
vt 0.528025 0.024661
vt 0.537586 0.086899
vt 0.527383 0.088435
vt 0.537586 0.024557
vt 0.528025 0.024661
vt 0.537586 0.086899
vt 0.527383 0.088435
vt 0.537586 0.024557
vt 0.537586 0.086899
vt 0.528025 0.024661
vt 0.527383 0.088435
vt 0.537586 0.024557
vt 0.537586 0.086899
vt 0.528025 0.024661
vt 0.527383 0.088435
vt 0.537586 0.024557
vt 0.528025 0.024661
vt 0.537586 0.086899
vt 0.527383 0.088435
vt 0.863703 0.380790
vt 0.863703 0.339219
vt 0.873906 0.339219
vt 0.873906 0.380789
vt 0.863703 0.380790
vt 0.873906 0.339219
vt 0.863703 0.339219
vt 0.873906 0.380789
vt 0.863703 0.380790
vt 0.863703 0.339219
vt 0.873906 0.339219
vt 0.873906 0.380789
vt 0.863703 0.380790
vt 0.873906 0.339219
vt 0.863703 0.339219
vt 0.873906 0.380789
vt 0.863703 0.380790
vt 0.863703 0.339219
vt 0.873906 0.339219
vt 0.873906 0.380789
vt 0.863703 0.380790
vt 0.873906 0.339219
vt 0.863703 0.339219
vt 0.873906 0.380789
vt 0.863703 0.380790
vt 0.863703 0.339219
vt 0.873906 0.339219
vt 0.873906 0.380789
vt 0.863703 0.380790
vt 0.873906 0.339219
vt 0.863703 0.339219
vt 0.873906 0.380789
vt 0.927105 0.004063
vt 0.995937 0.004063
vt 0.995937 0.069060
vt 0.926848 0.069643
vt 0.927105 0.004063
vt 0.995937 0.004063
vt 0.995937 0.069060
vt 0.926848 0.069643
vt 0.927105 0.004063
vt 0.995937 0.069060
vt 0.995937 0.004063
vt 0.926848 0.069643
vt 0.927105 0.004063
vt 0.995937 0.069060
vt 0.995937 0.004063
vt 0.926848 0.069643
vt 0.927105 0.004063
vt 0.995937 0.004063
vt 0.995937 0.069060
vt 0.926848 0.069643
vt 0.927105 0.004063
vt 0.995937 0.004063
vt 0.995937 0.069060
vt 0.926848 0.069643
vt 0.927105 0.004063
vt 0.995937 0.069060
vt 0.995937 0.004063
vt 0.926848 0.069643
vt 0.927105 0.004063
vt 0.995937 0.069060
vt 0.995937 0.004063
vt 0.926848 0.069643
vt 0.790156 0.707330
vt 0.790156 0.690528
vt 0.790156 0.730096
vt 0.790156 0.999982
vt 0.208886 0.397932
vt 0.208886 0.381146
vt 0.208886 0.420678
vt 0.208886 0.690321
vt 0.870917 0.024708
vt 0.532535 0.024673
vt 0.870917 0.310074
vt 0.864178 0.332937
vt 0.856418 0.345726
vt 0.840406 0.355303
vt 0.770352 0.374283
vt 0.701451 0.379543
vt 0.633052 0.374816
vt 0.563303 0.356269
vt 0.547840 0.347179
vt 0.539785 0.334991
vt 0.532536 0.310529
vt 0.926848 0.069643
vt 0.999755 0.380800
vt 0.999755 0.069643
vt 0.926848 0.380800
vt 0.926848 0.069643
vt 0.999755 0.380800
vt 0.999755 0.069643
vt 0.926848 0.380800
vt 0.926848 0.069643
vt 0.999755 0.380800
vt 0.999755 0.069643
vt 0.926848 0.380800
vt 0.926848 0.069643
vt 0.999755 0.380800
vt 0.999755 0.069643
vt 0.926848 0.380800
vt 0.999755 0.069643
vt 0.926848 0.069643
vt 0.999755 0.380800
vt 0.926848 0.380800
vt 0.926848 0.380800
vt 0.999755 0.380800
vt 0.926848 0.069643
vt 0.999755 0.069643
vt 0.926848 0.380800
vt 0.999755 0.380800
vt 0.926848 0.069643
vt 0.999755 0.069643
vt 0.926848 0.380800
vt 0.999755 0.380800
vt 0.926848 0.069643
vt 0.999755 0.069643
vt 0.926848 0.380800
vt 0.999755 0.380800
vt 0.926848 0.069643
vt 0.999755 0.069643
vt 0.926848 0.069643
vt 0.999755 0.380800
vt 0.999755 0.069643
vt 0.926848 0.380800
vt 0.999755 0.069643
vt 0.926848 0.380800
vt 0.999755 0.069643
vt 0.926848 0.380800
vt 0.999755 0.069643
vt 0.926848 0.380800
vt 0.926848 0.069643
vt 0.999755 0.380800
vt 0.999755 0.069643
vt 0.926848 0.380800
vt 0.926848 0.069643
vt 0.999755 0.380800
vt 0.999755 0.069643
vt 0.926848 0.380800
vt 0.926848 0.069643
vt 0.999755 0.380800
vt 0.999755 0.069643
vt 0.926848 0.380800
vt 0.926848 0.069643
vt 0.999755 0.380800
vt 0.999755 0.069643
vt 0.926848 0.380800
vt 0.920543 0.375703
vt 0.879264 0.000549
vt 0.879264 0.375703
vt 0.920543 0.000549
vt 0.920543 0.375703
vt 0.879264 0.000549
vt 0.879264 0.375703
vt 0.920543 0.000549
vt 0.879264 0.000549
vt 0.920543 0.000549
vt 0.920543 0.375703
vt 0.879264 0.375703
vt 0.920543 0.000549
vt 0.863134 0.277922
vt 0.863134 0.277922
vt 0.863134 0.277922
vt 0.863134 0.277922
vt 0.863134 0.277922
vt 0.863134 0.277922
vt 0.863134 0.277922
vt 0.863134 0.277922
vt 0.864676 0.274603
vt 0.864676 0.274603
vt 0.864676 0.274603
vt 0.864676 0.274603
vt 0.864676 0.274603
vt 0.864676 0.274603
vt 0.864676 0.274603
vt 0.864676 0.274603
vt 0.698901 0.373022
vt 0.629812 0.380235
vt 0.698036 0.380142
vt 0.630475 0.368815
vt 0.570200 0.368553
vt 0.572879 0.357461
vt 0.541813 0.352487
vt 0.547159 0.342507
vt 0.532931 0.342209
vt 0.541402 0.334977
vt 0.528025 0.300565
vt 0.538167 0.304157
vt 0.528025 0.024661
vt 0.538957 0.024661
vt 0.863134 0.277922
vt 0.863134 0.277922
vt 0.863134 0.277922
vt 0.863134 0.277922
vt 0.863134 0.277922
vt 0.863134 0.277922
vt 0.862020 0.274603
vt 0.862020 0.274603
vt 0.862020 0.274603
vt 0.862020 0.274603
vt 0.862020 0.274603
vt 0.862020 0.274603
vt 0.862020 0.274603
vt 0.862020 0.274603
vt 0.767876 0.368808
vt 0.768539 0.380228
vt 0.828608 0.355628
vt 0.831287 0.366720
vt 0.854328 0.342331
vt 0.859674 0.352311
vt 0.860085 0.334801
vt 0.868556 0.342033
vt 0.863671 0.304157
vt 0.873813 0.300565
vt 0.862881 0.024661
vt 0.873813 0.024661
vt 0.252380 0.379696
vt 0.493814 0.379696
vt 0.252380 0.000297
vt 0.493814 0.000297
vt 0.000087 0.379704
vt 0.241720 0.379704
vt 0.000087 0.000000
vt 0.241720 0.000000
vt 0.252380 0.379696
vt 0.252380 0.000297
vt 0.493814 0.379696
vt 0.493814 0.000297
vt 0.000087 0.379704
vt 0.000087 0.000000
vt 0.241720 0.379704
vt 0.241720 0.000000
s 0
usemtl Mat_11.001
f 1/1/1 3/3/1 2/2/1
f 2/2/1 4/4/1 1/1/1
f 5/5/2 7/7/2 6/6/2
f 6/6/3 8/8/3 5/5/3
f 4/4/4 2/2/4 7/7/4
f 7/7/5 5/5/5 4/4/5
f 9/9/6 11/11/6 10/10/6
f 11/11/6 9/9/6 12/12/6
f 13/13/7 15/15/7 14/14/7
f 15/15/7 13/13/7 16/16/7
f 12/12/8 14/14/8 11/11/8
f 14/14/9 12/12/9 13/13/9
f 17/17/10 19/19/10 18/18/10
f 20/20/11 22/22/11 21/21/11
f 22/22/12 20/20/12 23/23/12
f 21/21/13 24/24/13 20/20/13
f 17/17/14 21/21/14 19/19/14
f 21/21/15 17/17/15 24/24/15
f 25/25/16 27/27/16 26/26/16
f 28/28/17 30/30/17 29/29/17
f 29/29/18 31/31/18 28/28/18
f 30/30/19 28/28/19 32/32/19
f 25/25/20 26/26/20 30/30/20
f 30/30/21 32/32/21 25/25/21
f 33/33/22 34/34/22 35/35/22
f 36/36/23 35/35/23 34/34/23
f 37/37/24 38/38/24 39/39/24
f 40/40/25 39/39/25 38/38/25
f 41/41/26 42/42/26 43/43/26
f 44/44/27 43/43/27 42/42/27
f 45/45/28 46/46/28 47/47/28
f 48/48/29 47/47/29 46/46/29
f 49/49/30 51/51/30 50/50/30
f 52/52/31 50/50/31 51/51/31
f 53/53/32 55/55/32 54/54/32
f 56/56/32 54/54/32 55/55/32
f 57/57/33 58/58/33 59/59/33
f 59/59/34 60/60/34 57/57/34
f 61/61/33 62/62/33 63/63/33
f 62/62/35 61/61/35 64/64/35
f 65/65/36 66/66/36 67/67/36
f 67/67/37 68/68/37 65/65/37
f 69/69/38 70/70/38 71/71/38
f 70/70/39 69/69/39 72/72/39
f 73/73/33 74/74/33 75/75/33
f 75/75/34 76/76/34 73/73/34
f 77/77/33 78/78/33 79/79/33
f 78/78/35 77/77/35 80/80/35
f 81/81/40 82/82/40 83/83/40
f 83/83/37 84/84/37 81/81/37
f 85/85/41 86/86/41 87/87/41
f 86/86/39 85/85/39 88/88/39
f 89/89/42 90/90/42 91/91/42
f 91/91/42 92/92/42 89/89/42
f 93/93/42 94/94/42 95/95/42
f 95/95/42 96/96/42 93/93/42
f 97/97/43 98/98/43 99/99/43
f 98/98/1 97/97/1 100/100/1
f 101/101/43 102/102/43 103/103/43
f 102/102/1 101/101/1 104/104/1
f 105/105/6 106/106/6 107/107/6
f 107/107/42 108/108/42 105/105/42
f 109/109/6 110/110/6 111/111/6
f 111/111/6 112/112/6 109/109/6
f 113/113/43 114/114/43 115/115/43
f 114/114/43 113/113/43 116/116/43
f 117/117/43 118/118/43 119/119/43
f 118/118/43 117/117/43 120/120/43
f 121/121/3 23/23/3 20/20/3
f 23/23/2 121/121/2 122/122/2
f 123/123/44 20/20/44 24/24/44
f 20/20/44 123/123/44 121/121/44
f 124/124/1 24/24/1 17/17/1
f 24/24/1 124/124/1 123/123/1
f 125/125/7 28/28/7 31/31/7
f 31/31/7 126/126/7 125/125/7
f 127/127/45 32/32/45 28/28/45
f 28/28/45 125/125/45 127/127/45
f 128/128/6 25/25/6 32/32/6
f 32/32/6 127/127/6 128/128/6
f 129/129/46 131/131/46 130/130/46
f 132/132/46 130/130/46 131/131/46
f 133/133/46 130/130/46 132/132/46
f 134/134/46 130/130/46 133/133/46
f 135/135/46 130/130/46 134/134/46
f 136/136/46 130/130/46 135/135/46
f 137/137/46 130/130/46 136/136/46
f 138/138/46 130/130/46 137/137/46
f 139/139/46 130/130/46 138/138/46
f 140/140/46 130/130/46 139/139/46
f 141/141/46 130/130/46 140/140/46
f 142/142/47 144/144/47 143/143/47
f 142/142/48 143/143/48 145/145/48
f 146/146/49 148/148/49 147/147/49
f 146/146/50 147/147/50 149/149/50
f 150/150/1 152/152/1 151/151/1
f 150/150/1 151/151/1 153/153/1
f 154/154/51 155/155/51 156/156/51
f 154/154/52 157/157/52 155/155/52
f 158/158/53 159/159/53 160/160/53
f 159/159/54 161/161/54 160/160/54
f 162/162/55 164/164/55 163/163/55
f 163/163/56 164/164/56 165/165/56
f 166/166/57 167/167/57 168/168/57
f 167/167/57 169/169/57 168/168/57
f 170/170/58 172/172/58 171/171/58
f 171/171/59 172/172/59 173/173/59
f 174/174/60 175/175/60 176/176/60
f 175/175/61 176/176/61 177/177/61
f 178/178/53 158/158/53 179/179/53
f 178/178/54 179/179/54 161/161/54
f 164/164/55 163/163/55 180/180/55
f 164/164/62 163/163/62 181/181/62
f 168/168/57 182/182/57 167/167/57
f 168/168/57 167/167/57 183/183/57
f 172/172/58 171/171/58 184/184/58
f 172/172/59 185/185/59 171/171/59
f 176/176/60 186/186/60 175/175/60
f 176/176/61 187/187/61 175/175/61
f 188/188/47 190/190/47 189/189/47
f 188/188/48 189/189/48 191/191/48
f 192/192/49 194/194/49 193/193/49
f 192/192/50 193/193/50 195/195/50
f 196/196/6 197/197/6 198/198/6
f 196/196/6 199/199/6 197/197/6
f 200/200/63 201/201/63 202/202/63
f 200/200/64 203/203/64 201/201/64
f 204/204/1 206/206/1 205/205/1
f 205/205/1 207/207/1 204/204/1
f 208/208/6 210/210/6 209/209/6
f 209/209/1 208/208/1 211/211/1
f 208/208/33 206/206/33 212/212/33
f 212/212/33 213/213/33 208/208/33
f 206/206/1 214/214/1 212/212/1
f 207/207/1 212/212/1 214/214/1
f 213/213/6 209/209/6 208/208/6
f 215/215/1 209/209/1 208/208/1
f 216/216/33 212/212/33 208/208/33
f 210/210/33 208/208/33 212/212/33
f 217/217/65 218/218/65 219/219/65
f 218/218/65 217/217/65 220/220/65
f 220/220/66 221/221/66 218/218/66
f 221/221/66 220/220/66 222/222/66
f 222/222/67 223/223/67 221/221/67
f 223/223/67 222/222/67 224/224/67
f 225/225/68 226/226/68 227/227/68
f 226/226/68 225/225/68 228/228/68
f 228/228/69 229/229/69 226/226/69
f 229/229/69 228/228/69 230/230/69
f 230/230/70 231/231/70 229/229/70
f 231/231/70 230/230/70 232/232/70
f 233/233/46 235/235/46 234/234/46
f 234/234/46 236/236/46 233/233/46
f 236/236/46 234/234/46 237/237/46
f 237/237/46 238/238/46 236/236/46
f 238/238/46 237/237/46 239/239/46
f 239/239/46 240/240/46 238/238/46
f 240/240/46 239/239/46 241/241/46
f 241/241/46 242/242/46 240/240/46
f 242/242/71 241/241/71 243/243/71
f 243/243/72 244/244/72 242/242/72
f 244/244/73 243/243/73 245/245/73
f 245/245/74 246/246/74 244/244/74
f 219/219/75 247/247/75 217/217/75
f 247/247/75 219/219/75 248/248/75
f 248/248/76 249/249/76 247/247/76
f 249/249/76 248/248/76 250/250/76
f 250/250/77 251/251/77 249/249/77
f 251/251/77 250/250/77 252/252/77
f 253/253/78 254/254/78 255/255/78
f 254/254/78 253/253/78 256/256/78
f 256/256/79 257/257/79 254/254/79
f 257/257/79 256/256/79 258/258/79
f 258/258/80 259/259/80 257/257/80
f 259/259/80 258/258/80 260/260/80
f 235/235/46 233/233/46 261/261/46
f 261/261/46 262/262/46 235/235/46
f 262/262/46 261/261/46 263/263/46
f 263/263/46 264/264/46 262/262/46
f 264/264/46 263/263/46 265/265/46
f 265/265/46 266/266/46 264/264/46
f 266/266/46 265/265/46 267/267/46
f 267/267/46 268/268/46 266/266/46
f 268/268/46 267/267/46 269/269/46
f 269/269/81 270/270/81 268/268/81
f 270/270/82 269/269/82 271/271/82
f 271/271/83 272/272/83 270/270/83
f 273/273/84 275/275/84 274/274/84
f 276/276/6 274/274/6 275/275/6
f 277/277/84 279/279/84 278/278/84
f 280/280/84 278/278/84 279/279/84
f 281/281/85 283/283/85 282/282/85
f 284/284/1 282/282/1 283/283/1
f 285/285/85 287/287/85 286/286/85
f 288/288/85 286/286/85 287/287/85
